<svg xmlns="http://www.w3.org/2000/svg" version="1.1" xmlns:xlink="http://www.w3.org/1999/xlink" width="1000" height="1000"><metadata><rdf:RDF xmlns:rdf="http://www.w3.org/1999/02/22-rdf-syntax-ns#" xmlns:dc="http://purl.org/dc/elements/1.1/"><rdf:Description><dc:creator>RealFaviconGenerator</dc:creator><dc:source>https://realfavicongenerator.net</dc:source></rdf:Description></rdf:RDF></metadata><style>
    #light-icon {
      display: inline;
    }
    #dark-icon {
      display: none;
    }

    @media (prefers-color-scheme: dark) {
      #light-icon {
        display: none;
      }
      #dark-icon {
        display: inline;
      }
    }
  </style><g id="light-icon"><svg xmlns="http://www.w3.org/2000/svg" version="1.1" xmlns:xlink="http://www.w3.org/1999/xlink" width="1000" height="1000"><g><g transform="matrix(1.953125,0,0,1.953125,0,0)"><svg xmlns="http://www.w3.org/2000/svg" viewBox="0 0 512 512" role="img" aria-labelledby="title description" width="512" height="512"><title id="title">rdio dark monoline r signal mark</title><desc id="description">A white monoline lowercase r with a blue dot on a dark background</desc><rect width="512" height="512" rx="112" fill="#050505"></rect><path d="M159 350V174" fill="none" stroke="#f7f7f7" stroke-linecap="round" stroke-width="58"></path><path d="M159 219C190 184 237 174 278 191C297 199 312 212 322 229" fill="none" stroke="#f7f7f7" stroke-linecap="round" stroke-width="58"></path><circle cx="248" cy="279" r="40" fill="#2aa1b6"></circle></svg></g></g></svg></g><g id="dark-icon"><svg xmlns="http://www.w3.org/2000/svg" version="1.1" xmlns:xlink="http://www.w3.org/1999/xlink" width="1000" height="1000"><g><g transform="matrix(1.953125,0,0,1.953125,0,0)"><svg xmlns="http://www.w3.org/2000/svg" viewBox="0 0 512 512" role="img" aria-labelledby="title description" width="512" height="512"><title id="title">rdio monoline r signal mark</title><desc id="description">A monoline lowercase r with a blue signal dot nested inside the curve</desc><rect width="512" height="512" rx="112" fill="#f7f7f7"></rect><path d="M159 350V174" fill="none" stroke="#050505" stroke-linecap="round" stroke-width="58"></path><path d="M159 219C190 184 237 174 278 191C297 199 312 212 322 229" fill="none" stroke="#050505" stroke-linecap="round" stroke-width="58"></path><circle cx="248" cy="279" r="40" fill="#2aa1b6"></circle></svg></g></g></svg></g></svg>